<?xml version="1.0" encoding="utf-8"?>
<!-- Generator: Adobe Illustrator 21.1.0, SVG Export Plug-In . SVG Version: 6.00 Build 0)  -->
<svg version="1.1" id="Layer_1" xmlns="http://www.w3.org/2000/svg" xmlns:xlink="http://www.w3.org/1999/xlink" x="0px" y="0px"
	 viewBox="0 0 100 100" enable-background="new 0 0 100 100" xml:space="preserve">
<g>
	<path fill="#F68C43" d="M35.508,93.691L29.317,87.5c-0.886-0.886-1.05-2.267-0.383-3.322c2.314-3.659,1.866-8.571-1.337-11.774
		c-3.203-3.203-8.114-3.651-11.773-1.337c-1.055,0.667-2.436,0.503-3.322-0.383l-6.191-6.191c-1.07-1.07-1.074-2.802-0.009-3.867
		L60.625,6.301c1.065-1.065,2.797-1.061,3.867,0.009l6.191,6.191c0.886,0.886,1.05,2.267,0.383,3.322
		c-2.314,3.659-1.866,8.571,1.337,11.774s8.114,3.651,11.773,1.337c1.055-0.667,2.436-0.503,3.322,0.383l6.191,6.191
		c1.07,1.07,1.074,2.802,0.009,3.867L39.375,93.7C38.31,94.765,36.578,94.761,35.508,93.691z"/>
	<g>
		<path fill="#3792CF" d="M16.927,50L50,16.926L39.375,6.301c-1.065-1.065-2.797-1.061-3.867,0.009L29.317,12.5
			c-0.886,0.886-1.05,2.267-0.383,3.322c2.314,3.659,1.866,8.571-1.337,11.774c-3.203,3.203-8.114,3.651-11.773,1.337
			c-1.055-0.667-2.436-0.503-3.322,0.383l-6.191,6.191c-1.07,1.07-1.074,2.802-0.009,3.867L16.927,50z"/>
		<path fill="#3792CF" d="M83.073,50L50,83.074L60.625,93.7c1.065,1.065,2.797,1.061,3.867-0.009l6.191-6.191
			c0.886-0.886,1.05-2.267,0.383-3.322c-2.314-3.659-1.866-8.571,1.337-11.774c3.203-3.203,8.114-3.651,11.773-1.337
			c1.055,0.667,2.436,0.503,3.322-0.383l6.191-6.191c1.07-1.07,1.074-2.802,0.009-3.867L83.073,50z"/>
	</g>
	<g>
		<g>
			<path fill="#FFFFFF" d="M16.692,52.886c-0.129,0-0.259-0.049-0.357-0.148l-1.072-1.073c-0.198-0.198-0.198-0.517,0-0.715
				s0.517-0.198,0.715,0l1.072,1.073c0.198,0.198,0.198,0.517,0,0.715C16.951,52.836,16.822,52.886,16.692,52.886z"/>
		</g>
		<g>
			<path fill="#FFFFFF" d="M45.558,81.753c-0.129,0-0.259-0.049-0.357-0.148l-2.061-2.062c-0.198-0.198-0.198-0.518,0-0.715
				c0.198-0.198,0.517-0.198,0.715,0l2.061,2.062c0.198,0.198,0.198,0.518,0,0.715C45.817,81.704,45.687,81.753,45.558,81.753z
				 M41.435,77.629c-0.129,0-0.259-0.049-0.357-0.148l-2.062-2.062c-0.198-0.198-0.198-0.517,0-0.715
				c0.198-0.198,0.517-0.198,0.715,0l2.062,2.062c0.198,0.198,0.198,0.517,0,0.715C41.693,77.58,41.564,77.629,41.435,77.629z
				 M37.311,73.505c-0.129,0-0.259-0.049-0.357-0.148l-2.061-2.062c-0.198-0.198-0.198-0.518,0-0.715
				c0.198-0.198,0.517-0.198,0.715,0l2.061,2.062c0.198,0.198,0.198,0.518,0,0.715C37.569,73.456,37.44,73.505,37.311,73.505z
				 M33.187,69.381c-0.129,0-0.259-0.049-0.357-0.148l-2.062-2.062c-0.198-0.198-0.198-0.517,0-0.715
				c0.198-0.198,0.517-0.198,0.715,0l2.062,2.062c0.198,0.198,0.198,0.517,0,0.715C33.446,69.332,33.317,69.381,33.187,69.381z
				 M29.064,65.258c-0.129,0-0.259-0.049-0.357-0.148l-2.062-2.062c-0.198-0.198-0.198-0.517,0-0.715
				c0.198-0.198,0.517-0.198,0.715,0l2.062,2.062c0.198,0.198,0.198,0.517,0,0.715C29.323,65.208,29.193,65.258,29.064,65.258z
				 M24.94,61.134c-0.129,0-0.259-0.049-0.357-0.148l-2.062-2.062c-0.198-0.198-0.198-0.517,0-0.715
				c0.198-0.198,0.517-0.198,0.715,0l2.062,2.062c0.198,0.198,0.198,0.517,0,0.715C25.199,61.084,25.069,61.134,24.94,61.134z
				 M20.816,57.01c-0.129,0-0.259-0.049-0.357-0.148L18.397,54.8c-0.198-0.198-0.198-0.517,0-0.715c0.198-0.198,0.517-0.198,0.715,0
				l2.062,2.062c0.198,0.198,0.198,0.517,0,0.715C21.075,56.96,20.946,57.01,20.816,57.01z"/>
		</g>
		<g>
			<path fill="#FFFFFF" d="M48.693,84.887c-0.129,0-0.259-0.049-0.357-0.148l-1.072-1.073c-0.198-0.198-0.198-0.518,0-0.715
				c0.198-0.198,0.517-0.198,0.715,0l1.072,1.073c0.198,0.198,0.198,0.518,0,0.715C48.951,84.838,48.822,84.887,48.693,84.887z"/>
		</g>
	</g>
	<g>
		<path fill="#136296" d="M52.629,80.951c-0.129,0-0.259-0.049-0.357-0.148L19.199,47.729c-0.198-0.198-0.198-0.517,0-0.715
			c0.198-0.198,0.517-0.198,0.715,0l33.073,33.074c0.198,0.198,0.198,0.517,0,0.715C52.888,80.901,52.758,80.951,52.629,80.951z"/>
	</g>
	<g>
		<g>
			<path fill="#FEE36F" d="M53.543,71.93c-0.129,0-0.259-0.049-0.357-0.148l-5.461-5.461c-0.198-0.198-0.198-0.517,0-0.715
				c0.198-0.198,0.517-0.198,0.715,0l5.461,5.461c0.198,0.198,0.198,0.517,0,0.715C53.802,71.88,53.672,71.93,53.543,71.93z"/>
		</g>
		<g>
			<path fill="#FEE36F" d="M56.292,69.18c-0.129,0-0.259-0.049-0.357-0.148l-5.461-5.461c-0.198-0.198-0.198-0.517,0-0.715
				c0.198-0.198,0.517-0.198,0.715,0l5.461,5.461c0.198,0.198,0.198,0.517,0,0.715C56.551,69.131,56.421,69.18,56.292,69.18z"/>
		</g>
		<g>
			<path fill="#FEE36F" d="M59.041,66.431c-0.129,0-0.259-0.049-0.357-0.148l-5.461-5.461c-0.198-0.198-0.198-0.517,0-0.715
				s0.517-0.198,0.715,0l5.461,5.461c0.198,0.198,0.198,0.517,0,0.715C59.3,66.382,59.171,66.431,59.041,66.431z"/>
		</g>
		<g>
			<path fill="#FEE36F" d="M61.79,63.682c-0.129,0-0.259-0.049-0.357-0.148l-5.461-5.461c-0.198-0.198-0.198-0.517,0-0.715
				c0.198-0.198,0.517-0.198,0.715,0l5.461,5.461c0.198,0.198,0.198,0.517,0,0.715C62.049,63.632,61.92,63.682,61.79,63.682z"/>
		</g>
		<g>
			<path fill="#FEE36F" d="M64.539,60.933c-0.129,0-0.259-0.049-0.357-0.148l-5.461-5.461c-0.198-0.198-0.198-0.517,0-0.715
				c0.198-0.198,0.517-0.198,0.715,0l5.461,5.461c0.198,0.198,0.198,0.517,0,0.715C64.798,60.883,64.669,60.933,64.539,60.933z"/>
		</g>
		<g>
			<path fill="#FEE36F" d="M67.289,58.183c-0.129,0-0.259-0.049-0.357-0.148l-5.461-5.461c-0.198-0.198-0.198-0.517,0-0.715
				c0.198-0.198,0.517-0.198,0.715,0l5.461,5.461c0.198,0.198,0.198,0.517,0,0.715C67.548,58.134,67.418,58.183,67.289,58.183z"/>
		</g>
	</g>
	<g>
		<path fill="#FFFFFF" d="M39.988,58.374c-0.129,0-0.259-0.049-0.357-0.148c-0.198-0.198-0.198-0.517,0-0.715l18.229-18.23
			c0.198-0.198,0.517-0.198,0.715,0c0.198,0.198,0.198,0.517,0,0.715l-18.229,18.23C40.247,58.325,40.117,58.374,39.988,58.374z"/>
	</g>
	<g>
		<path fill="#FFFFFF" d="M43.095,61.481c-0.129,0-0.259-0.049-0.357-0.148c-0.198-0.198-0.198-0.517,0-0.715l8.248-8.248
			c0.198-0.198,0.517-0.198,0.715,0c0.198,0.198,0.198,0.517,0,0.715l-8.248,8.248C43.353,61.432,43.224,61.481,43.095,61.481z"/>
	</g>
	<g>
		<g>
			<path fill="#136296" d="M16.927,50.506c-0.129,0-0.259-0.049-0.357-0.148L5.945,39.732C5.333,39.121,4.998,38.308,5,37.442
				c0.002-0.865,0.341-1.679,0.953-2.292l6.19-6.191c1.065-1.065,2.689-1.251,3.95-0.453c3.507,2.218,8.194,1.685,11.146-1.267
				c2.952-2.952,3.485-7.639,1.267-11.146c-0.798-1.261-0.611-2.885,0.453-3.95l6.191-6.191c1.266-1.265,3.321-1.27,4.582-0.009
				l10.625,10.626c0.198,0.198,0.198,0.517,0,0.715L17.285,50.358C17.186,50.456,17.057,50.506,16.927,50.506z M14.413,29.033
				c-0.566,0-1.132,0.219-1.554,0.641l-6.19,6.191c-0.423,0.422-0.656,0.983-0.657,1.579C6.01,38.039,6.24,38.598,6.66,39.017
				l10.268,10.268l32.358-32.359L39.018,6.658c-0.867-0.867-2.281-0.862-3.152,0.009l-6.191,6.191
				c-0.716,0.716-0.848,1.849-0.314,2.694c2.468,3.903,1.876,9.118-1.407,12.402c-3.284,3.283-8.499,3.875-12.401,1.407
				C15.206,29.141,14.809,29.033,14.413,29.033z"/>
		</g>
		<g>
			<path fill="#136296" d="M62.55,95c-0.828,0-1.654-0.314-2.283-0.943L49.643,83.432c-0.198-0.198-0.198-0.517,0-0.715
				l33.073-33.074c0.198-0.198,0.517-0.198,0.715,0l10.625,10.626c0.611,0.611,0.947,1.424,0.945,2.29
				c-0.002,0.865-0.341,1.679-0.953,2.292l-6.19,6.191c-1.065,1.065-2.69,1.25-3.95,0.453c-3.506-2.217-8.194-1.685-11.146,1.267
				c-2.952,2.952-3.485,7.639-1.268,11.146c0.797,1.261,0.611,2.885-0.453,3.95l-6.191,6.191C64.215,94.682,63.382,95,62.55,95z
				 M50.715,83.074l10.267,10.268c0.867,0.867,2.281,0.862,3.152-0.009l6.191-6.191c0.716-0.716,0.848-1.849,0.314-2.694
				c-2.468-3.903-1.876-9.118,1.407-12.402c3.283-3.284,8.498-3.876,12.401-1.407c0.845,0.535,1.978,0.402,2.694-0.314l6.19-6.191
				c0.423-0.422,0.656-0.983,0.657-1.579c0.001-0.595-0.229-1.153-0.648-1.573L83.073,50.715L50.715,83.074z"/>
		</g>
	</g>
	<g>
		<path fill="#136296" d="M37.45,95c-0.832,0-1.665-0.317-2.299-0.952l0,0l-6.19-6.191c-1.065-1.065-1.251-2.689-0.453-3.95
			c2.217-3.507,1.684-8.194-1.267-11.146c-2.952-2.952-7.641-3.485-11.146-1.267c-1.26,0.798-2.885,0.612-3.95-0.453l-6.19-6.191
			C5.341,64.237,5.002,63.424,5,62.559c-0.002-0.866,0.333-1.679,0.945-2.29L60.267,5.943c1.26-1.261,3.316-1.257,4.582,0.009
			l6.19,6.191c1.065,1.065,1.251,2.689,0.453,3.95c-2.217,3.507-1.684,8.194,1.268,11.146c2.951,2.952,7.64,3.484,11.146,1.267
			c1.261-0.798,2.885-0.611,3.95,0.453l6.19,6.191c0.613,0.613,0.951,1.427,0.953,2.292c0.002,0.866-0.333,1.679-0.945,2.29
			L39.733,94.057C39.104,94.686,38.277,95,37.45,95z M35.865,93.333c0.871,0.871,2.285,0.876,3.152,0.009L93.34,39.017
			c0.42-0.419,0.65-0.978,0.648-1.573c-0.001-0.596-0.235-1.157-0.657-1.579l-6.19-6.191c-0.716-0.716-1.849-0.847-2.694-0.314
			c-3.901,2.468-9.118,1.876-12.401-1.407c-3.283-3.283-3.875-8.499-1.407-12.402c0.534-0.845,0.402-1.978-0.314-2.694l-6.19-6.191
			c-0.871-0.871-2.285-0.876-3.152-0.009L6.66,60.983c-0.42,0.419-0.65,0.978-0.648,1.573c0.001,0.596,0.235,1.157,0.657,1.579
			l6.19,6.191c0.717,0.717,1.849,0.848,2.694,0.314c3.902-2.467,9.118-1.876,12.401,1.407c3.283,3.283,3.875,8.499,1.407,12.402
			c-0.534,0.845-0.402,1.978,0.314,2.694L35.865,93.333z"/>
	</g>
</g>
</svg>
